# File created by Blade
# Date/Time:  Fri Jan 16 17:45:28 2015
# Frame Rate: 120.000 fps
#------------------------------------------------------
:FULLY-SPECIFIED
:DEGREES
4306
root -5.360237 35.205237 -9.155065 0.015587 -3.395047 -5.702864
Spine -4.380907 -0.979057 10.434749
Head 1.065415 6.415754 -8.365823
LeftShoulder -25.089650 12.702084 5.239557
LeftArm 26.900098 -59.578114 -34.533739
LeftForeArm 18.402634 -0.000000 5.518836
LeftHand -5.166811 -0.000000 -4.722124
LeftHandThumb1 -26.253704 0.000000 33.147579
RightShoulder -11.916585 14.759251 -21.004767
RightArm 3.060406 19.687233 14.219514
RightForeArm -36.767165 -0.000000 18.359045
RightHand -7.738921 -0.000000 12.435079
RightHandThumb1 -24.326973 -0.000000 -32.862282
LeftUpLeg 10.970241 12.929388 6.578059
LeftLeg -9.424017 -0.000000 0.000000
LeftFoot -16.295724 27.205486 -9.365517
LeftToeBase 22.590533 -0.000000 -0.000000
RightUpLeg 7.915185 -4.630804 3.981941
RightLeg -4.414145 -0.000000 0.000000
RightFoot -5.887207 -29.161493 4.842915
RightToeBase 13.612595 -0.000000 -0.000000
4307
root -5.360707 35.205516 -9.157282 0.017082 -3.391217 -5.703078
Spine -4.392212 -0.967139 10.433344
Head 1.083229 6.400393 -8.372293
LeftShoulder -25.066783 12.671165 5.224559
LeftArm 26.832517 -59.367160 -34.368484
LeftForeArm 18.476507 0.000000 5.494513
LeftHand -5.076999 -0.000000 -4.688075
LeftHandThumb1 -26.253704 0.000000 33.147579
RightShoulder -11.900384 14.762851 -20.990915
RightArm 3.041993 19.597889 14.182468
RightForeArm -36.760702 -0.000000 18.348277
RightHand -7.820397 0.000000 12.533462
RightHandThumb1 -24.326973 -0.000000 -32.862282
LeftUpLeg 10.959789 12.918947 6.577422
LeftLeg -9.412529 -0.000000 0.000000
LeftFoot -16.304856 27.203523 -9.373730
LeftToeBase 22.585388 -0.000000 -0.000000
RightUpLeg 7.902757 -4.643655 3.983607
RightLeg -4.399657 -0.000000 0.000000
RightFoot -5.896327 -29.172028 4.776311
RightToeBase 13.760925 -0.000000 -0.000000
4308
root -5.361400 35.205733 -9.160012 0.025646 -3.394449 -5.700299
Spine -4.412297 -0.957781 10.423772
Head 1.092839 6.386465 -8.386887
LeftShoulder -25.063229 12.653808 5.214954
LeftArm 26.793542 -59.170685 -34.249236
LeftForeArm 18.430129 -0.000000 5.491650
LeftHand -4.969437 -0.000000 -4.511371
LeftHandThumb1 -26.253704 0.000000 33.147579
RightShoulder -11.877845 14.748459 -20.970947
RightArm 3.018598 19.537122 14.157852
RightForeArm -36.735903 -0.000000 18.367962
RightHand -7.832160 -0.000000 12.560114
RightHandThumb1 -24.326973 -0.000000 -32.862282
LeftUpLeg 10.943212 12.934969 6.575089
LeftLeg -9.406111 -0.000000 0.000000
LeftFoot -16.290230 27.195473 -9.355213
LeftToeBase 22.570756 -0.000000 -0.000000
RightUpLeg 7.884251 -4.639273 3.983744
RightLeg -4.388538 -0.000000 0.000000
RightFoot -5.901876 -29.165434 4.773621
RightToeBase 13.726981 -0.000000 -0.000000
4309
root -5.363316 35.205971 -9.162158 0.024188 -3.388297 -5.700146
Spine -4.418968 -0.956426 10.411357
Head 1.093330 6.386584 -8.385986
LeftShoulder -25.041332 12.641990 5.212458
LeftArm 26.765017 -59.066503 -34.172339
LeftForeArm 18.401103 -0.000000 5.509450
LeftHand -5.000803 0.000000 -4.671605
LeftHandThumb1 -26.253704 0.000000 33.147579
RightShoulder -11.853239 14.763079 -20.943758
RightArm 2.978767 19.467125 14.125451
RightForeArm -36.757443 -0.000000 18.389532
RightHand -7.852463 -0.000000 12.578026
RightHandThumb1 -24.326973 -0.000000 -32.862282
LeftUpLeg 10.942110 12.932730 6.578608
LeftLeg -9.413239 -0.000000 0.000000
LeftFoot -16.280664 27.187203 -9.363791
LeftToeBase 22.573830 -0.000000 -0.000000
RightUpLeg 7.880806 -4.685662 3.980141
RightLeg -4.385273 -0.000000 0.000000
RightFoot -5.892134 -29.126825 4.765114
RightToeBase 13.727466 -0.000000 -0.000000
4310
root -5.364022 35.206033 -9.164604 0.028614 -3.377925 -5.697731
Spine -4.430948 -0.962545 10.401170
Head 1.089420 6.409553 -8.385018
LeftShoulder -25.037078 12.639827 5.193892
LeftArm 26.790758 -58.962876 -34.130560
LeftForeArm 18.359265 -0.000000 5.489364
LeftHand -4.825879 0.000000 -4.575745
LeftHandThumb1 -26.253704 0.000000 33.147579
RightShoulder -11.838763 14.755549 -20.919373
RightArm 2.970208 19.400876 14.106115
RightForeArm -36.743296 0.000000 18.386107
RightHand -7.844256 -0.000000 12.593612
RightHandThumb1 -24.326973 -0.000000 -32.862282
LeftUpLeg 10.935003 12.909760 6.572892
LeftLeg -9.421983 -0.000000 0.000000
LeftFoot -16.273463 27.203974 -9.356599
LeftToeBase 22.588348 -0.000000 -0.000000
RightUpLeg 7.872607 -4.706315 3.976605
RightLeg -4.381653 -0.000000 0.000000
RightFoot -5.907811 -29.103588 4.761523
RightToeBase 13.772748 -0.000000 -0.000000
4311
root -5.365441 35.206678 -9.167549 0.025969 -3.373214 -5.694396
Spine -4.437732 -0.959275 10.396037
Head 1.097539 6.414941 -8.423419
LeftShoulder -24.988526 12.648393 5.171199
LeftArm 26.782983 -58.961018 -34.103856
LeftForeArm 18.329147 0.000000 5.513549
LeftHand -4.579600 -0.000000 -4.592354
LeftHandThumb1 -26.253704 0.000000 33.147579
RightShoulder -11.811011 14.731238 -20.871972
RightArm 2.961736 19.363487 14.046153
RightForeArm -36.612044 -0.000000 18.262480
RightHand -7.472013 -0.000000 12.399458
RightHandThumb1 -24.326973 -0.000000 -32.862282
LeftUpLeg 10.929263 12.914889 6.573821
LeftLeg -9.416425 -0.000000 0.000000
LeftFoot -16.271832 27.188386 -9.368806
LeftToeBase 22.599297 -0.000000 -0.000000
RightUpLeg 7.873845 -4.719462 3.971957
RightLeg -4.386784 -0.000000 0.000000
RightFoot -5.894778 -29.068143 4.842099
RightToeBase 13.608939 -0.000000 -0.000000
4312
root -5.366731 35.206497 -9.169515 0.021584 -3.363933 -5.690148
Spine -4.445286 -0.966496 10.376743
Head 1.102918 6.450371 -8.411977
LeftShoulder -24.961348 12.656133 5.161402
LeftArm 26.849763 -58.973775 -34.150826
LeftForeArm 18.277586 -0.000000 5.552513
LeftHand -4.440771 -0.000000 -4.479842
LeftHandThumb1 -26.253704 0.000000 33.147579
RightShoulder -11.787523 14.740356 -20.835278
RightArm 2.943071 19.306697 14.024909
RightForeArm -36.615642 -0.000000 18.246357
RightHand -7.438984 -0.000000 12.410638
RightHandThumb1 -24.326973 -0.000000 -32.862282
LeftUpLeg 10.925792 12.924123 6.573047
LeftLeg -9.412742 -0.000000 0.000000
LeftFoot -16.255173 27.174488 -9.356639
LeftToeBase 22.560182 -0.000000 -0.000000
RightUpLeg 7.877932 -4.757724 3.968856
RightLeg -4.393252 -0.000000 0.000000
RightFoot -5.889922 -29.051472 4.820661
RightToeBase 13.612434 -0.000000 -0.000000
4313
root -5.367595 35.206435 -9.172049 0.021284 -3.348904 -5.688968
Spine -4.451633 -0.960071 10.365307
Head 1.096271 6.469079 -8.412384
LeftShoulder -24.934246 12.653365 5.141278
LeftArm 26.973206 -59.029063 -34.258338
LeftForeArm 18.201887 -0.000000 5.620259
LeftHand -4.237836 -0.000000 -4.411276
LeftHandThumb1 -26.253704 0.000000 33.147579
RightShoulder -11.798911 14.730890 -20.810167
RightArm 2.948034 19.302388 14.020200
RightForeArm -36.668049 -0.000000 18.226353
RightHand -7.396480 -0.000000 12.482012
RightHandThumb1 -24.326973 -0.000000 -32.862282
LeftUpLeg 10.916051 12.902380 6.570816
LeftLeg -9.406347 -0.000000 0.000000
LeftFoot -16.244259 27.152257 -9.425662
LeftToeBase 22.410216 -0.000000 -0.000000
RightUpLeg 7.877123 -4.772289 3.970101
RightLeg -4.394243 -0.000000 0.000000
RightFoot -5.892694 -29.061659 4.749298
RightToeBase 13.727670 -0.000000 -0.000000
4314
root -5.369406 35.206160 -9.174391 0.022739 -3.331774 -5.693993
Spine -4.459638 -0.965163 10.364656
Head 1.083401 6.513118 -8.422183
LeftShoulder -24.920995 12.626989 5.146214
LeftArm 27.059155 -58.991364 -34.325723
LeftForeArm 18.151587 -0.000000 5.638642
LeftHand -3.950592 -0.000000 -4.052235
LeftHandThumb1 -26.253704 0.000000 33.147579
RightShoulder -11.798815 14.725404 -20.800774
RightArm 2.937375 19.321435 14.042898
RightForeArm -36.702058 -0.000000 18.240223
RightHand -7.430530 -0.000000 12.534136
RightHandThumb1 -24.326973 -0.000000 -32.862282
LeftUpLeg 10.909546 12.886007 6.577440
LeftLeg -9.414331 -0.000000 0.000000
LeftFoot -16.250222 27.191593 -9.336637
LeftToeBase 22.570896 -0.000000 -0.000000
RightUpLeg 7.875169 -4.790072 3.976090
RightLeg -4.397831 -0.000000 0.000000
RightFoot -5.888256 -29.048537 4.821108
RightToeBase 13.626043 -0.000000 -0.000000
4315
root -5.371106 35.206004 -9.177313 0.024446 -3.316022 -5.694946
Spine -4.467220 -0.983222 10.356048
Head 1.070276 6.568113 -8.425797
LeftShoulder -24.900126 12.621210 5.116150
LeftArm 27.159164 -59.099113 -34.430060
LeftForeArm 18.216574 -0.000000 5.747278
LeftHand -3.824099 -0.000000 -3.944041
LeftHandThumb1 -26.253704 0.000000 33.147579
RightShoulder -11.780547 14.731286 -20.765124
RightArm 2.930151 19.328352 14.039817
RightForeArm -36.682342 -0.000000 18.222766
RightHand -7.407642 -0.000000 12.556664
RightHandThumb1 -24.326973 -0.000000 -32.862282
LeftUpLeg 10.897770 12.878397 6.580169
LeftLeg -9.407345 -0.000000 0.000000
LeftFoot -16.250533 27.173795 -9.317405
LeftToeBase 22.586585 -0.000000 -0.000000
RightUpLeg 7.871436 -4.794617 3.982116
RightLeg -4.400291 -0.000000 0.000000
RightFoot -5.901215 -29.056998 4.761107
RightToeBase 13.740008 -0.000000 -0.000000
4316
root -5.373512 35.205541 -9.179919 0.024176 -3.298569 -5.697857
Spine -4.467070 -0.993153 10.335377
Head 1.042929 6.606186 -8.389480
LeftShoulder -24.904859 12.599364 5.130581
LeftArm 27.292043 -59.094310 -34.547302
LeftForeArm 18.217123 0.000000 5.802139
LeftHand -3.662084 -0.000000 -3.778069
LeftHandThumb1 -26.253704 0.000000 33.147579
RightShoulder -11.801654 14.757627 -20.780873
RightArm 2.902549 19.377017 14.152791
RightForeArm -36.758433 -0.000000 18.375844
RightHand -7.771800 -0.000000 12.539443
RightHandThumb1 -24.326973 -0.000000 -32.862282
LeftUpLeg 10.891313 12.854185 6.585819
LeftLeg -9.413724 -0.000000 0.000000
LeftFoot -16.238491 27.190227 -9.293512
LeftToeBase 22.610912 -0.000000 -0.000000
RightUpLeg 7.871686 -4.806013 3.990716
RightLeg -4.407974 -0.000000 0.000000
RightFoot -5.896803 -29.074113 4.755724
RightToeBase 13.759247 -0.000000 -0.000000
